<?xml version="1.0" encoding="utf-8"?>
<!-- Generator: Adobe Illustrator 27.9.0, SVG Export Plug-In . SVG Version: 6.00 Build 0)  -->
<svg version="1.1" id="Layer_1" xmlns="http://www.w3.org/2000/svg" xmlns:xlink="http://www.w3.org/1999/xlink" x="0px" y="0px"
	 viewBox="0 0 139.8 29.2" style="enable-background:new 0 0 139.8 29.2;" xml:space="preserve">
<g>
	<g>
		<path d="M121.3,28.7V0.4h8c3,0,5.4,0.6,7.1,1.9s2.6,3.1,2.6,5.7c0,1.2-0.3,2.4-1,3.5c-0.7,1.1-1.5,2-2.7,2.5
			c1.3,0.6,2.4,1.5,3.2,2.7c0.8,1.2,1.2,2.5,1.2,3.9c0,2.5-0.9,4.4-2.7,5.9c-1.8,1.4-4.1,2.2-7.1,2.2H121.3z M124.5,12.8h5.4
			c1.8,0,3.2-0.4,4.4-1.2c1.1-0.8,1.7-2,1.7-3.6c0-1.6-0.6-2.8-1.7-3.5c-1.1-0.8-2.6-1.1-4.4-1.1h-5.4V12.8z M124.5,25.8h5.9
			c1.9,0,3.4-0.4,4.5-1.3c1.1-0.9,1.7-2.2,1.7-3.9c0-1.6-0.6-2.8-1.7-3.6c-1.1-0.8-2.6-1.2-4.4-1.2h-6.1V25.8z"/>
	</g>
	<path d="M0,14.9c0-4.2,0.9-7.5,2.7-10C4.5,2.4,6.9,1.2,10,1.2c2,0,3.7,0.6,5.2,1.7c1.5,1.2,2.4,2.8,2.7,4.8h-2.9
		c-0.4-1.2-1-2.1-2-2.7C12.2,4.3,11.1,4,9.8,4C7.7,4,6,5.1,4.7,7.1C3.4,9.2,2.9,11.9,3,15.2c0.7-1.3,1.7-2.4,3-3s2.6-1,4-1
		c2.4,0,4.5,0.8,6.2,2.5s2.7,3.8,2.7,6.5c0,2.7-0.9,5-2.7,6.6c-1.8,1.7-3.9,2.5-6.2,2.5c-3.1,0-5.5-1.3-7.3-3.9
		C0.9,22.7,0,19.3,0,14.9z M4.1,20.1c0,1.8,0.6,3.3,1.7,4.5s2.6,1.8,4.3,1.8c1.5,0,2.9-0.5,4-1.6c1.1-1.1,1.7-2.6,1.7-4.6
		c0-1.9-0.6-3.4-1.7-4.5C13,14.5,11.6,14,10,14c-1.6,0-3,0.6-4.1,1.7C4.7,16.8,4.1,18.3,4.1,20.1z"/>
	<path d="M24.1,15.2c0-1.9,0.2-3.6,0.5-5.2c0.3-1.6,0.9-3.1,1.6-4.4c0.7-1.3,1.7-2.4,2.9-3.2c1.2-0.8,2.7-1.2,4.3-1.2
		c1.7,0,3.1,0.4,4.3,1.2C39,3.1,40,4.2,40.7,5.5c0.7,1.3,1.2,2.8,1.6,4.4c0.3,1.6,0.5,3.4,0.5,5.2c0,1.8-0.2,3.6-0.5,5.2
		c-0.3,1.6-0.9,3.1-1.6,4.5C40,26.2,39,27.2,37.8,28c-1.2,0.8-2.7,1.2-4.3,1.2c-1.7,0-3.1-0.4-4.3-1.2c-1.2-0.8-2.2-1.9-2.9-3.2
		c-0.7-1.4-1.3-2.8-1.6-4.5C24.2,18.7,24.1,17,24.1,15.2z M27,15.2c0,2.3,0.2,4.2,0.7,5.8L38.1,6.7C37,4.9,35.5,4,33.5,4
		c-2.2,0-3.8,1-4.8,3C27.6,9,27,11.8,27,15.2z M28.8,23.7c1.1,1.8,2.6,2.7,4.6,2.7c2.2,0,3.8-1,4.8-3c1-2,1.6-4.7,1.6-8.2
		c0-2.2-0.2-4.1-0.6-5.7L28.8,23.7z"/>
	<rect x="50.9" y="26.1" width="37.1" height="2.7"/>
	<path d="M98.9,26.2c-1.7-2-2.6-4.5-2.6-7.4c0-3,0.9-5.4,2.6-7.4c1.7-2,4-3,6.7-3c1.5,0,2.8,0.3,4,1c1.2,0.6,2.1,1.5,2.7,2.5V1h3
		v27.7h-2.9v-3.1c-1.6,2.3-3.9,3.5-6.8,3.5C102.8,29.2,100.6,28.2,98.9,26.2z M101.2,13.3c-1.2,1.4-1.7,3.3-1.7,5.5
		c0,2.2,0.6,4.1,1.7,5.5c1.2,1.4,2.7,2.2,4.7,2.2s3.6-0.7,4.7-2.2c1.2-1.4,1.8-3.3,1.8-5.5c0-2.2-0.6-4.1-1.8-5.5
		c-1.2-1.4-2.8-2.2-4.7-2.2S102.3,11.8,101.2,13.3z"/>
</g>
</svg>
