<?xml version="1.0" encoding="utf-8"?>
<!-- Generator: Adobe Illustrator 27.9.0, SVG Export Plug-In . SVG Version: 6.00 Build 0)  -->
<svg version="1.1" id="Layer_1" xmlns="http://www.w3.org/2000/svg" xmlns:xlink="http://www.w3.org/1999/xlink" x="0px" y="0px"
	 viewBox="0 0 352.5 36.3" style="enable-background:new 0 0 352.5 36.3;" xml:space="preserve">
<g>
	<path d="M172.5,13.1c-1.6-1.3-3.7-1.9-6-1.9c-3.2,0-5.8,1.2-7.7,3.6c-1.9,2.4-2.9,5.4-2.9,9c0,3.7,1,6.7,3.1,9
		c2.1,2.3,4.9,3.4,8.4,3.4c3.6,0,6.6-1.5,9.1-4.5l-2.4-2.3c-1.8,2.4-4.1,3.5-6.7,3.5c-2.3,0-4.1-0.7-5.5-2.1
		c-1.4-1.4-2.2-3.4-2.3-5.9h17.4l0-1.6c0-2-0.3-3.9-1-5.6C175.3,15.9,174.2,14.4,172.5,13.1z M159.6,21.6c0.3-2.1,1.1-3.8,2.2-5.1
		c1.2-1.3,2.8-2,4.7-2c1.9,0,3.5,0.6,4.7,1.9c1.2,1.3,1.9,3,2,5.1H159.6z M201.2,31.4c-1.3,1-2.7,1.5-4.3,1.5
		c-2.5,0-4.5-0.9-5.9-2.6c-1.4-1.7-2.2-3.9-2.2-6.6c0-2.7,0.8-4.9,2.3-6.7c1.5-1.7,3.5-2.6,5.9-2.6c1.7,0,3.2,0.5,4.5,1.6
		c1.3,1,2.1,2.3,2.4,3.7l3.2-1c-0.4-2.1-1.5-3.9-3.4-5.4c-1.8-1.5-4-2.2-6.7-2.2c-3.4,0-6.2,1.2-8.5,3.6c-2.3,2.4-3.5,5.4-3.5,8.9
		c0,3.6,1.1,6.6,3.2,9c2.1,2.4,4.9,3.5,8.2,3.5c2.7,0,5.1-0.8,7-2.4c2-1.6,3.2-3.4,3.8-5.4l-3.5-1.1
		C203.4,29.1,202.5,30.4,201.2,31.4z M227.8,11.8h-12.6v3.3h9.2v17.3h-9v3.3h21.5v-3.3h-9.1V11.8z M256.3,11.2
		c-1.7,0-3.3,0.4-4.7,1.1c-1.4,0.8-2.5,1.8-3.2,3V0.7h-3.5v35h3.4V32c1.9,2.8,4.6,4.3,8,4.3c3.2,0,5.8-1.2,7.9-3.6
		c2-2.4,3.1-5.4,3.1-8.9c0-3.5-1-6.5-3.1-8.9C262.1,12.4,259.5,11.2,256.3,11.2z M261.5,30.3c-1.4,1.7-3.2,2.6-5.5,2.6
		c-2.3,0-4.2-0.9-5.6-2.6c-1.4-1.7-2.1-3.9-2.1-6.6c0-2.7,0.7-4.9,2.1-6.6c1.4-1.7,3.3-2.6,5.6-2.6c2.3,0,4.2,0.9,5.5,2.6
		c1.4,1.7,2.1,3.9,2.1,6.6C263.5,26.4,262.8,28.6,261.5,30.3z M291,13.1c-1.6-1.3-3.7-1.9-6-1.9c-3.2,0-5.8,1.2-7.7,3.6
		c-1.9,2.4-2.9,5.4-2.9,9c0,3.7,1,6.7,3.1,9c2.1,2.3,4.9,3.4,8.4,3.4c3.6,0,6.6-1.5,9.1-4.5l-2.4-2.3c-1.8,2.4-4.1,3.5-6.7,3.5
		c-2.3,0-4.1-0.7-5.5-2.1c-1.4-1.4-2.2-3.4-2.3-5.9h17.4l0-1.6c0-2-0.3-3.9-1-5.6C293.8,15.9,292.7,14.4,291,13.1z M278.1,21.6
		c0.3-2.1,1.1-3.8,2.2-5.1c1.2-1.3,2.8-2,4.7-2c1.9,0,3.5,0.6,4.7,1.9c1.2,1.3,1.9,3,2,5.1H278.1z M316.1,0.7h-13.1V4h9.4v28.4H303
		v3.3h22.4v-3.3h-9.2V0.7z M350.6,24.7c-1.3-1.1-3-1.9-5.2-2.3l-4.5-0.8c-2.6-0.4-3.9-1.6-3.9-3.5c0-1,0.5-1.9,1.6-2.5
		c1-0.7,2.4-1,4-1c1.5,0,2.8,0.4,4.1,1.2c1.3,0.8,2.2,1.8,2.7,3.1l2.9-1.4c-0.6-1.7-1.8-3.2-3.7-4.4c-1.9-1.2-3.8-1.8-5.9-1.8
		c-2.5,0-4.7,0.6-6.5,1.9c-1.9,1.3-2.8,2.9-2.8,5.1c0,1.8,0.7,3.3,2,4.5c1.3,1.2,3.1,2,5.2,2.4l4.4,0.7c1.3,0.2,2.3,0.6,3.1,1.2
		c0.8,0.6,1.1,1.4,1.1,2.3c0,1.1-0.6,2-1.8,2.7c-1.2,0.7-2.7,1-4.4,1c-3.1,0-5.5-1.3-7.3-3.8l-2.8,2.4c1.1,1.5,2.5,2.6,4.3,3.5
		c1.8,0.8,3.8,1.2,5.9,1.2c2.6,0,4.9-0.7,6.7-2.1c1.8-1.4,2.8-3.1,2.8-5.2C352.5,27.3,351.8,25.8,350.6,24.7z M12.3,13.5
		c-1.7,0-3.4,0.4-4.9,1.3c-1.6,0.9-2.8,2.1-3.7,3.8c-0.2-4.2,0.6-7.5,2.1-10.2c1.6-2.6,3.7-3.9,6.3-3.9c1.6,0,2.9,0.4,4.1,1.2
		c1.2,0.8,2,1.9,2.4,3.5h3.6c-0.4-2.5-1.5-4.5-3.4-6c-1.8-1.5-4-2.2-6.4-2.2C8.5,1,5.5,2.5,3.3,5.7C1.1,8.8,0,13,0,18.3
		c0,5.4,1.1,9.8,3.3,13.1c2.2,3.3,5.2,4.9,9,4.9c2.9,0,5.4-1,7.6-3.1c2.2-2.1,3.3-4.9,3.3-8.3c0-3.4-1.1-6.1-3.3-8.2
		C17.8,14.6,15.2,13.5,12.3,13.5z M17.4,30.7c-1.4,1.4-3.1,2-4.9,2c-2.1,0-3.9-0.8-5.3-2.3c-1.4-1.5-2.1-3.4-2.1-5.6
		c0-2.3,0.7-4.1,2.1-5.6c1.4-1.4,3.1-2.1,5.1-2.1c2,0,3.7,0.7,5.1,2.1c1.4,1.4,2.1,3.3,2.1,5.7C19.5,27.4,18.8,29.3,17.4,30.7z
		 M50.1,6.5c-0.9-1.7-2.1-3-3.6-4C45,1.5,43.2,1,41.2,1c-2,0-3.8,0.5-5.3,1.5c-1.5,1-2.7,2.3-3.6,4c-0.9,1.7-1.5,3.6-2,5.6
		c-0.4,2-0.6,4.2-0.6,6.6c0,2.3,0.2,4.5,0.6,6.5c0.4,2,1.1,3.9,2,5.6c0.9,1.7,2.1,3.1,3.6,4.1c1.5,1,3.3,1.5,5.3,1.5
		c2,0,3.8-0.5,5.3-1.5c1.5-1,2.7-2.3,3.6-4.1c0.9-1.7,1.5-3.6,2-5.6c0.4-2,0.6-4.2,0.6-6.5c0-2.3-0.2-4.5-0.6-6.6
		C51.7,10,51,8.2,50.1,6.5z M33.3,18.6c0-4.3,0.7-7.8,2-10.3c1.3-2.5,3.3-3.8,6-3.8c2.4,0,4.3,1.1,5.7,3.4l-12.8,18
		C33.6,24,33.3,21.5,33.3,18.6z M47.1,29c-1.3,2.5-3.3,3.8-5.9,3.8c-2.5,0-4.4-1.1-5.7-3.4l12.8-17.9c0.5,2,0.7,4.4,0.7,7.2
		C49.1,23,48.4,26.4,47.1,29z M65.8,35.7h45.7v-3.3H65.8V35.7z M144.4,14.3c-0.8-1.3-1.9-2.4-3.4-3.2c-1.4-0.8-3.1-1.2-4.9-1.2
		c-3.4,0-6.1,1.3-8.2,3.8c-2.1,2.5-3.2,5.6-3.2,9.4c0,3.7,1.1,6.8,3.2,9.4c2.1,2.5,4.9,3.8,8.2,3.8c3.6,0,6.4-1.5,8.4-4.5v3.9h3.5
		V0.8h-3.7V14.3z M142.3,30.1c-1.5,1.8-3.4,2.7-5.8,2.7s-4.4-0.9-5.8-2.7c-1.4-1.8-2.1-4.1-2.1-6.9c0-2.8,0.7-5.1,2.1-6.9
		c1.4-1.8,3.4-2.7,5.8-2.7s4.4,0.9,5.8,2.7c1.5,1.8,2.2,4.1,2.2,6.9C144.5,25.9,143.8,28.2,142.3,30.1z M225.3,5.5
		c0.7,0,1.4-0.3,1.9-0.8c0.5-0.5,0.8-1.2,0.8-2s-0.3-1.4-0.8-2C226.7,0.3,226,0,225.3,0c-0.7,0-1.4,0.3-1.9,0.8
		c-0.6,0.5-0.8,1.2-0.8,2s0.3,1.4,0.8,2C224,5.3,224.6,5.5,225.3,5.5z"/>
</g>
</svg>
